<?xml version="1.0" standalone="no"?>
<!DOCTYPE svg PUBLIC "-//W3C//DTD SVG 20010904//EN"
 "http://www.w3.org/TR/2001/REC-SVG-20010904/DTD/svg10.dtd">
<svg version="1.0" xmlns="http://www.w3.org/2000/svg"
 width="100.000000pt" height="100.000000pt" viewBox="0 0 100.000000 100.000000"
 preserveAspectRatio="xMidYMid meet">
<metadata>
Created by potrace 1.14, written by Peter Selinger 2001-2017
</metadata>
<g transform="translate(0.000000,100.000000) scale(0.100000,-0.100000)"
fill="#000000" stroke="none">
<path d="M495 888 c-52 -14 -95 -71 -95 -127 0 -23 11 -41 46 -75 33 -31 50
-58 60 -93 l14 -48 -5 65 c-2 36 -7 94 -11 130 -6 64 -6 66 27 98 18 17 41 32
51 32 10 0 18 4 18 9 0 12 -72 18 -105 9z"/>
<path d="M331 850 c-108 -77 -167 -170 -165 -261 3 -108 75 -162 197 -148 19
3 19 2 -36 43 -51 37 -70 77 -63 131 11 76 54 177 104 243 13 17 23 32 21 31
-2 0 -28 -18 -58 -39z"/>
<path d="M612 843 c-14 -6 11 -42 53 -75 33 -26 48 -10 32 32 -14 37 -52 56
-85 43z"/>
<path d="M556 821 c-22 -24 -34 -70 -27 -100 l7 -24 17 26 c20 30 38 105 27
112 -4 2 -15 -4 -24 -14z"/>
<path d="M774 758 c24 -56 4 -142 -45 -204 -40 -50 -63 -66 -121 -79 l-48 -10
55 -34 c42 -26 66 -33 101 -33 49 1 101 27 122 62 13 21 12 21 -13 4 l-26 -17
23 39 c19 31 23 54 23 114 0 63 -4 82 -27 121 -15 25 -34 51 -42 59 -14 11
-15 9 -2 -22z"/>
<path d="M573 734 c-11 -16 -23 -48 -26 -71 -6 -41 -6 -42 13 -23 27 27 43 60
30 60 -8 0 -7 6 0 21 19 34 5 44 -17 13z"/>
<path d="M351 723 c-33 -80 4 -172 79 -194 41 -12 59 -27 64 -51 2 -7 7 -21
11 -31 9 -21 -1 -131 -14 -154 -7 -13 -9 -10 -8 10 0 14 -10 44 -22 67 -11 22
-22 54 -23 71 -1 17 -5 32 -8 34 -4 2 -19 -15 -34 -38 -22 -34 -26 -49 -22
-79 l6 -37 -31 28 c-17 16 -56 41 -87 56 -62 30 -112 71 -112 92 0 8 -4 12 -9
9 -12 -8 7 -111 31 -162 29 -62 70 -91 157 -109 40 -8 77 -15 82 -15 20 0 7
26 -24 48 -77 55 -75 53 -42 46 17 -4 36 -12 44 -18 11 -8 13 -8 8 1 -5 8 2 7
20 -2 15 -8 33 -15 40 -15 22 0 23 -18 2 -44 l-21 -26 24 10 c52 24 97 143 78
209 -4 14 -2 42 5 61 9 27 22 40 59 58 69 33 88 93 56 176 -7 19 -9 18 -24
-17 -9 -20 -32 -54 -51 -74 -19 -21 -36 -44 -37 -53 -1 -8 -2 -22 -3 -30 -1
-8 -5 -30 -9 -49 l-8 -34 -21 36 c-12 21 -35 42 -59 53 -34 15 -77 68 -66 80
2 2 27 -17 56 -42 29 -25 52 -41 52 -36 0 13 -58 92 -68 92 -9 0 -45 57 -52
85 -5 17 -8 15 -19 -12z m278 -110 c-8 -25 -79 -83 -79 -66 0 6 81 93 87 93 1
0 -2 -12 -8 -27z"/>
<path d="M385 500 c20 -22 31 -20 22 5 -4 8 -14 15 -23 15 -16 0 -16 -2 1 -20z"/>
<path d="M620 368 c-21 -23 -26 -38 -11 -38 10 0 26 19 34 43 8 23 2 22 -23
-5z"/>
<path d="M828 375 c-3 -3 -25 -7 -49 -9 -83 -8 -152 -37 -188 -80 -17 -20 -7
-21 23 -1 13 9 37 18 52 21 55 9 129 35 154 54 14 11 22 20 19 20 -3 0 -8 -2
-11 -5z"/>
<path d="M815 314 c-22 -17 -72 -31 -133 -39 -24 -3 -57 -12 -75 -20 -21 -10
-24 -14 -10 -11 13 2 26 0 29 -5 3 -5 2 -9 -3 -8 -24 4 -52 -3 -82 -22 -41
-25 -35 -36 9 -14 17 9 58 17 91 18 56 2 84 16 37 18 -13 1 -1 5 25 9 51 9
106 41 126 72 13 22 12 22 -14 2z"/>
<path d="M232 231 c2 -5 22 -25 46 -44 53 -45 140 -78 212 -81 56 -3 151 21
173 43 9 9 8 11 -4 6 -10 -4 -19 -2 -22 2 -3 5 4 10 15 10 12 1 25 6 30 11 14
14 -66 14 -127 1 -43 -9 -56 -8 -96 9 -64 28 -234 59 -227 43z"/>
</g>
</svg>
